<?xml version="1.0" encoding="UTF-8" standalone="no"?>
<svg
   xmlns:dc="http://purl.org/dc/elements/1.1/"
   xmlns:cc="http://creativecommons.org/ns#"
   xmlns:rdf="http://www.w3.org/1999/02/22-rdf-syntax-ns#"
   xmlns:svg="http://www.w3.org/2000/svg"
   xmlns="http://www.w3.org/2000/svg"
   xmlns:sodipodi="http://sodipodi.sourceforge.net/DTD/sodipodi-0.dtd"
   xmlns:inkscape="http://www.inkscape.org/namespaces/inkscape"
   id="Outlined"
   viewBox="0 0 32 32"
   version="1.1"
   sodipodi:docname="email.svg"
   inkscape:version="0.92.4 (5da689c313, 2019-01-14)">
  <metadata
     id="metadata4540">
    <rdf:RDF>
      <cc:Work
         rdf:about="">
        <dc:format>image/svg+xml</dc:format>
        <dc:type
           rdf:resource="http://purl.org/dc/dcmitype/StillImage" />
      </cc:Work>
    </rdf:RDF>
  </metadata>
  <defs
     id="defs4538">
    <filter
       inkscape:collect="always"
       style="color-interpolation-filters:sRGB"
       id="filter4542"
       x="-0.011142857"
       width="1.0222857"
       y="-0.013"
       height="1.026">
      <feGaussianBlur
         inkscape:collect="always"
         stdDeviation="0.13"
         id="feGaussianBlur4544" />
    </filter>
  </defs>
  <sodipodi:namedview
     pagecolor="#ffffff"
     bordercolor="#666666"
     borderopacity="1"
     objecttolerance="10"
     gridtolerance="10"
     guidetolerance="10"
     inkscape:pageopacity="0"
     inkscape:pageshadow="2"
     inkscape:window-width="1920"
     inkscape:window-height="1001"
     id="namedview4536"
     showgrid="false"
     inkscape:zoom="25.25"
     inkscape:cx="16.455446"
     inkscape:cy="16"
     inkscape:window-x="-9"
     inkscape:window-y="-9"
     inkscape:window-maximized="1"
     inkscape:current-layer="Outlined" />
  <title
     id="title4530" />
  <g
     id="Fill"
     style="fill:#ffffff;fill-opacity:1">
    <path
       d="m 2,4 v 21 a 3,3 0 0 0 3,3 h 22 a 3,3 0 0 0 3,-3 V 4 Z m 24.27,2 -9.62,8.14 a 1,1 0 0 1 -1.3,0 L 5.73,6 Z M 27,26 H 5 A 1,1 0 0 1 4,25 V 7.16 l 10.06,8.51 a 3,3 0 0 0 3.88,0 L 28,7.16 V 25 a 1,1 0 0 1 -1,1 z"
       id="path4532"
       inkscape:connector-curvature="0"
       style="opacity:1;filter:url(#filter4542);fill:#ffffff;fill-opacity:1" />
  </g>
</svg>
