<?xml version="1.0" encoding="UTF-8" standalone="no"?>
<svg
   xmlns:dc="http://purl.org/dc/elements/1.1/"
   xmlns:cc="http://creativecommons.org/ns#"
   xmlns:rdf="http://www.w3.org/1999/02/22-rdf-syntax-ns#"
   xmlns:svg="http://www.w3.org/2000/svg"
   xmlns="http://www.w3.org/2000/svg"
   xmlns:sodipodi="http://sodipodi.sourceforge.net/DTD/sodipodi-0.dtd"
   xmlns:inkscape="http://www.inkscape.org/namespaces/inkscape"
   id="Outlined"
   viewBox="0 0 32 32"
   version="1.1"
   sodipodi:docname="logo-light.svg"
   inkscape:version="0.92.4 (5da689c313, 2019-01-14)">
  <metadata
     id="metadata837">
    <rdf:RDF>
      <cc:Work
         rdf:about="">
        <dc:format>image/svg+xml</dc:format>
        <dc:type
           rdf:resource="http://purl.org/dc/dcmitype/StillImage" />
      </cc:Work>
    </rdf:RDF>
  </metadata>
  <defs
     id="defs835" />
  <sodipodi:namedview
     pagecolor="#ffffff"
     bordercolor="#666666"
     borderopacity="1"
     objecttolerance="10"
     gridtolerance="10"
     guidetolerance="10"
     inkscape:pageopacity="0"
     inkscape:pageshadow="2"
     inkscape:window-width="1920"
     inkscape:window-height="1001"
     id="namedview833"
     showgrid="false"
     inkscape:zoom="25.25"
     inkscape:cx="16.455446"
     inkscape:cy="16"
     inkscape:window-x="-9"
     inkscape:window-y="-9"
     inkscape:window-maximized="1"
     inkscape:current-layer="Outlined" />
  <title
     id="title827" />
  <g
     id="Fill"
     style="fill:#ffffff;fill-opacity:1">
    <path
       d="M18.12,2.88a3.08,3.08,0,0,0-4.24,0L1.29,15.46l1.42,1.42L5,14.59V27a3,3,0,0,0,3,3H24a3,3,0,0,0,3-3V14.59l2.29,2.29,1.42-1.42ZM14,28V21h4v7Zm11-1a1,1,0,0,1-1,1H20V19H12v9H8a1,1,0,0,1-1-1V12.59l8.29-8.3a1,1,0,0,1,1.42,0L25,12.59Z"
       id="path829"
       style="fill:#ffffff;fill-opacity:1" />
  </g>
</svg>
