<?xml version="1.0" encoding="UTF-8" standalone="no"?>
<svg
   xmlns:dc="http://purl.org/dc/elements/1.1/"
   xmlns:cc="http://creativecommons.org/ns#"
   xmlns:rdf="http://www.w3.org/1999/02/22-rdf-syntax-ns#"
   xmlns:svg="http://www.w3.org/2000/svg"
   xmlns="http://www.w3.org/2000/svg"
   xmlns:sodipodi="http://sodipodi.sourceforge.net/DTD/sodipodi-0.dtd"
   xmlns:inkscape="http://www.inkscape.org/namespaces/inkscape"
   id="Outlined"
   viewBox="0 0 32 32"
   version="1.1"
   sodipodi:docname="phone.svg"
   inkscape:version="0.92.4 (5da689c313, 2019-01-14)">
  <metadata
     id="metadata4568">
    <rdf:RDF>
      <cc:Work
         rdf:about="">
        <dc:format>image/svg+xml</dc:format>
        <dc:type
           rdf:resource="http://purl.org/dc/dcmitype/StillImage" />
      </cc:Work>
    </rdf:RDF>
  </metadata>
  <defs
     id="defs4566" />
  <sodipodi:namedview
     pagecolor="#ffffff"
     bordercolor="#666666"
     borderopacity="1"
     objecttolerance="10"
     gridtolerance="10"
     guidetolerance="10"
     inkscape:pageopacity="0"
     inkscape:pageshadow="2"
     inkscape:window-width="1920"
     inkscape:window-height="1001"
     id="namedview4564"
     showgrid="false"
     inkscape:zoom="14.302792"
     inkscape:cx="-13.071439"
     inkscape:cy="10.117805"
     inkscape:window-x="-9"
     inkscape:window-y="-9"
     inkscape:window-maximized="1"
     inkscape:current-layer="Outlined" />
  <title
     id="title4558" />
  <g
     id="Fill"
     style="fill:#ffffff;fill-opacity:1">
    <path
       d="M23,17.88l-4.93,2.47a1,1,0,0,1-1,0,21.2,21.2,0,0,1-5.4-5.41,1,1,0,0,1,0-1L14.12,9l-3.5-7H2V3A27,27,0,0,0,29,30h1V21.38ZM28,28A25,25,0,0,1,4,4H9.38l2.5,5-2,4a3,3,0,0,0,.19,3A23.06,23.06,0,0,0,16,22a3,3,0,0,0,3,.19l4-2,5,2.5Z"
       id="path4560"
       style="fill:#ffffff;fill-opacity:1" />
  </g>
</svg>
